<svg width="320" height="339" viewBox="0 0 320 339" fill="none" xmlns="http://www.w3.org/2000/svg">
<path d="M120.58 97.3406C106.203 97.3406 92.7536 99.6582 79.7681 104.294C87.6522 45.4256 138.203 0 199.42 0C266.203 0 320 53.7691 320 120.517C320 172.895 286.609 217.394 240.232 234.081C241.159 228.982 241.159 223.42 241.159 217.858C241.159 151.11 187.362 97.3406 120.58 97.3406Z" fill="#13AE8D"/>
<path d="M79.7681 104.294C78.8406 109.392 78.8406 114.955 78.8406 120.517C78.8406 187.265 132.638 241.034 199.42 241.034C213.797 241.034 227.246 238.716 240.232 234.081C232.348 292.949 181.797 338.375 120.58 338.375C53.7971 338.375 4.57764e-05 284.605 4.57764e-05 217.858C4.57764e-05 165.479 33.3913 120.981 79.7681 104.294Z" fill="#3D3E3E"/>
</svg>
